<svg width="303" height="41" viewBox="0 0 303 41" fill="none" xmlns="http://www.w3.org/2000/svg">
<path d="M302.734 32.9223C302.734 36.8749 299.53 40.0791 295.578 40.0791H7.15683C3.20422 40.0791 0 36.8749 0 32.9223V7.15683C0 3.20422 3.20422 0 7.15683 0H295.578C299.53 0 302.734 3.20422 302.734 7.15683V32.9223Z" fill="#FE3501"/>
<circle cx="225.261" cy="28.0915" r="2.32588" fill="white"/>
<circle cx="126.855" cy="22.3649" r="2.32588" fill="white"/>
<path d="M291.163 10.0898H294.169V30.129H290.848V15.7581L283.892 24.5753H283.176L276.248 15.7867V30.129H272.899V10.0898H275.933L283.548 19.7945L291.163 10.0898Z" fill="white"/>
<path d="M239.43 30.5282C233.218 30.5282 228.924 26.2341 228.924 20.1078C228.924 13.9816 233.247 9.6875 239.401 9.6875C242.321 9.6875 244.869 10.7467 246.873 12.7793L244.64 14.8404C243.266 13.4663 241.577 12.7506 239.516 12.7506C235.25 12.7506 232.302 15.7565 232.302 20.1078C232.302 24.4592 235.25 27.4651 239.516 27.4651C241.52 27.4651 243.467 26.6921 244.869 25.318L247.016 27.551C245.012 29.5262 242.465 30.5282 239.43 30.5282Z" fill="white"/>
<path d="M193.903 10.0898H196.909V30.129H193.588V15.7581L186.632 24.5753H185.916L178.989 15.7867V30.129H175.639V10.0898H178.674L186.289 19.7945L193.903 10.0898Z" fill="white"/>
<path d="M169.327 30.129L167.495 25.978H156.731L154.899 30.129H151.292L160.281 10.0898H164.002L172.963 30.129H169.327ZM162.113 13.4679L158.019 22.9435H166.207L162.113 13.4679Z" fill="white"/>
<path d="M152.409 10.0898V13.1816H145.91V30.129H142.561V13.1816H136.062V10.0898H152.409Z" fill="white"/>
<path d="M107.406 10.0898H110.412V30.129H107.092V15.7581L100.135 24.5753H99.4194L92.4916 15.7867V30.129H89.1422V10.0898H92.1767L99.7916 19.7945L107.406 10.0898Z" fill="white"/>
<path d="M75.8903 30.5298C70.6229 30.5298 67.3021 27.1804 67.3021 21.827V10.0898H70.6229V21.7698C70.6229 25.2337 72.6841 27.438 75.8903 27.438C79.0966 27.438 81.1578 25.2337 81.1578 21.7698V10.0898H84.4785V21.827C84.4785 27.1804 81.1578 30.5298 75.8903 30.5298Z" fill="white"/>
<path d="M59.273 10.0898H62.6224V30.129H59.5879L48.7668 15.8153L48.7954 22.1992V30.129H45.446V10.0898H48.4805L59.3017 24.4035L59.273 18.4204V10.0898Z" fill="white"/>
<path d="M124.35 9.66016C130.18 9.66028 134.906 14.3868 134.906 20.2168C134.906 26.0467 130.18 30.7723 124.35 30.7725C118.52 30.7725 113.794 26.0468 113.794 20.2168C113.794 14.3867 118.52 9.66016 124.35 9.66016ZM124.35 13.2363C120.496 13.2363 117.372 16.3611 117.372 20.2148C117.372 24.0685 120.497 27.1924 124.35 27.1924C128.204 27.1922 131.328 24.0684 131.328 20.2148C131.328 16.3612 128.204 13.2365 124.35 13.2363Z" fill="white"/>
<path d="M210.948 9.66016C216.778 9.66033 221.504 14.3868 221.504 20.2168C221.504 26.0467 216.778 30.7723 210.948 30.7725C205.118 30.7725 200.392 26.0468 200.392 20.2168C200.392 14.3867 205.118 9.66016 210.948 9.66016ZM210.948 13.2363C207.094 13.2363 203.97 16.3611 203.97 20.2148C203.97 24.0685 207.095 27.1924 210.948 27.1924C214.802 27.1921 217.926 24.0684 217.926 20.2148C217.926 16.3612 214.802 13.2366 210.948 13.2363Z" fill="white"/>
<path d="M258.541 9.66016C264.371 9.66033 269.097 14.3868 269.097 20.2168C269.097 26.0467 264.371 30.7723 258.541 30.7725C252.711 30.7725 247.985 26.0468 247.985 20.2168C247.985 14.3867 252.711 9.66016 258.541 9.66016ZM258.54 13.2363C254.687 13.2365 251.563 16.3611 251.563 20.2148C251.563 24.0684 254.687 27.1922 258.54 27.1924C262.394 27.1924 265.519 24.0685 265.519 20.2148C265.519 16.3611 262.394 13.2363 258.54 13.2363Z" fill="white"/>
<path fill-rule="evenodd" clip-rule="evenodd" d="M32.1485 7.93185L36.8577 11.9683L32.1485 16.0048L36.8577 20.0412L32.1485 24.0777L36.8577 28.1141L32.1485 32.1506L36.8577 36.8598H7.87262C5.30344 36.8598 3.22061 34.777 3.22058 32.2079V7.87469C3.22058 5.3055 5.30342 3.22266 7.87262 3.22266H36.8577L32.1485 7.93185ZM8.54273 7.2168C8.14781 6.87829 7.55325 6.92399 7.21473 7.31889C6.87623 7.71382 6.92191 8.30838 7.31682 8.6469L11.1918 11.9683L6.48259 16.0048L11.1918 20.0412L6.48259 24.0777L11.1918 28.1141L7.31682 31.4355C6.92192 31.774 6.87622 32.3686 7.21473 32.7635C7.55325 33.1584 8.14781 33.2041 8.54273 32.8656L14.0862 28.1141L9.37696 24.0777L14.0862 20.0412L9.37696 16.0048L14.0862 11.9683L8.54273 7.2168ZM17.1538 7.2168C16.7589 6.87829 16.1643 6.92399 15.8258 7.31889C15.4873 7.71382 15.533 8.30838 15.9279 8.6469L19.8029 11.9683L15.0937 16.0048L19.8029 20.0412L15.0937 24.0777L19.8029 28.1141L15.9279 31.4355C15.533 31.774 15.4873 32.3686 15.8258 32.7635C16.1643 33.1584 16.7589 33.2041 17.1538 32.8656L22.6973 28.1141L17.9881 24.0777L22.6973 20.0412L17.9881 16.0048L22.6973 11.9683L17.1538 7.2168ZM25.7649 7.2168C25.37 6.87829 24.7754 6.92399 24.4369 7.31889C24.0984 7.71382 24.1441 8.30838 24.539 8.6469L28.414 11.9683L23.7048 16.0048L28.414 20.0412L23.7048 24.0777L28.414 28.1141L24.539 31.4355C24.1441 31.774 24.0984 32.3686 24.4369 32.7635C24.7754 33.1584 25.37 33.2041 25.7649 32.8656L31.3084 28.1141L26.5992 24.0777L31.3084 20.0412L26.5992 16.0048L31.3084 11.9683L25.7649 7.2168Z" fill="white"/>
</svg>
