<svg width="224" height="224" viewBox="0 0 224 224" fill="none" xmlns="http://www.w3.org/2000/svg">
<rect width="224" height="224" rx="112" fill="#FE3501"/>
<path fill-rule="evenodd" clip-rule="evenodd" d="M159.317 64.6815L177.913 80.6205L159.317 96.5595L177.913 112.499L159.317 128.438L177.913 144.377L159.317 160.316L177.913 178.911H63.4575C53.3124 178.911 45.0878 170.687 45.0876 160.542V64.4558C45.0876 54.3106 53.3123 46.0859 63.4575 46.0859H177.913L159.317 64.6815ZM66.1036 61.8579C64.5441 60.5212 62.1963 60.7016 60.8596 62.261C59.5229 63.8205 59.7034 66.1683 61.2627 67.505L76.5641 80.6205L57.9686 96.5595L76.5641 112.499L57.9686 128.438L76.5641 144.377L61.2627 157.492C59.7034 158.829 59.5229 161.177 60.8596 162.736C62.1963 164.295 64.5441 164.476 66.1036 163.139L87.9933 144.377L69.3978 128.438L87.9933 112.499L69.3978 96.5595L87.9933 80.6205L66.1036 61.8579ZM100.107 61.8579C98.5474 60.5212 96.1996 60.7016 94.8628 62.261C93.5262 63.8205 93.7066 66.1683 95.266 67.505L110.567 80.6205L91.9718 96.5595L110.567 112.499L91.9718 128.438L110.567 144.377L95.266 157.492C93.7066 158.829 93.5261 161.177 94.8628 162.736C96.1996 164.295 98.5474 164.476 100.107 163.139L121.997 144.377L103.401 128.438L121.997 112.499L103.401 96.5595L121.997 80.6205L100.107 61.8579ZM134.11 61.8579C132.551 60.5212 130.203 60.7016 128.866 62.261C127.529 63.8205 127.71 66.1683 129.269 67.505L144.571 80.6205L125.975 96.5595L144.571 112.499L125.975 128.438L144.571 144.377L129.269 157.492C127.71 158.829 127.529 161.177 128.866 162.736C130.203 164.295 132.551 164.476 134.11 163.139L156 144.377L137.404 128.438L156 112.499L137.404 96.5595L156 80.6205L134.11 61.8579Z" fill="white"/>
</svg>
